C:\GBW_MyPrograms\KinderuniversiteitApp\Resultaten\Ellis\MrImpossible\MrImpossible_v1.mot
version=1
nRows=11
nColumns=29
inDegrees=yes
endheader
                time	         pelvis_tilt	           pelvis_tx	           pelvis_ty	       hip_flexion_l	       hip_flexion_r	        knee_angle_l	        knee_angle_r	       ankle_angle_l	       ankle_angle_r	    lumbar_extension	hamstrings_r/activation	bifemsh_r/activation	glut_max_r/activation	iliopsoas_r/activation	rect_fem_r/activation	  vasti_r/activation	gastroc_r/activation	 soleus_r/activation	tib_ant_r/activation	hamstrings_l/activation	bifemsh_l/activation	glut_max_l/activation	iliopsoas_l/activation	rect_fem_l/activation	  vasti_l/activation	gastroc_l/activation	 soleus_l/activation	tib_ant_l/activation	
          1.55709362	          2.97966970	          1.93003490	          0.89613246	         24.70304151	        -21.14902702	        -16.84138847	        -11.43835080	         11.31733899	          7.86287807	         -9.29217325	          0.05000338	          0.10654719	          0.05000164	          0.41497719	          0.05000226	          0.05000061	          0.09789430	          0.16432181	          0.05000024	          0.15892909	          0.05001106	          0.05468127	          0.05000160	          0.05865507	          0.06044599	          0.05896959	          0.05044548	          0.22996800	
          1.56747424	          2.92081530	          1.94667376	          0.89562980	         23.93807993	        -20.56117037	        -16.92621406	        -14.24259772	         11.13738617	          6.73368120	         -8.80203116	          0.05000398	          0.09083247	          0.06120723	          0.38338920	          0.05000217	          0.05000065	          0.08345566	          0.14008563	          0.05000015	          0.14211085	          0.08155464	          0.06923727	          0.05000223	          0.05000486	          0.08609121	          0.06585160	          0.05865387	          0.22958282	
          1.57785487	          2.86859925	          1.96344673	          0.89512783	         23.09317149	        -19.78523652	        -17.32268358	        -17.35212414	         11.06616747	          5.33265955	         -8.29960538	          0.05000339	          0.07743562	          0.08070415	          0.34452681	          0.05000264	          0.05000221	          0.07114661	          0.11942407	          0.05000144	          0.12269345	          0.08072177	          0.09052707	          0.05000108	          0.05000075	          0.12359524	          0.05614227	          0.05000348	          0.24915644	
          1.58823549	          2.81908379	          1.97996836	          0.89486205	         22.25579104	        -18.80287092	        -17.69913280	        -20.71771048	         10.91495126	          3.65239751	         -7.82934310	          0.06374206	          0.06601493	          0.06880125	          0.30042888	          0.05000068	          0.05000053	          0.06065306	          0.10180993	          0.16770621	          0.10459785	          0.06881676	          0.13461335	          0.05000028	          0.05000038	          0.17394015	          0.05000224	          0.05000221	          0.26000075	
          1.59861611	          2.77050738	          1.99585264	          0.89492702	         21.52716958	        -17.63914889	        -18.18056953	        -24.18286559	         10.74708129	          2.43840782	         -7.43808819	          0.07026219	          0.05628039	          0.05865383	          0.27837667	          0.05000134	          0.05000023	          0.05511325	          0.08679377	          0.16511024	          0.08917056	          0.05866738	          0.13146637	          0.05000075	          0.05002931	          0.22007460	          0.05000193	          0.05000175	          0.27301879	
          1.60899674	          2.72111444	          2.01099366	          0.89541810	         20.86216461	        -16.38549098	        -18.68059205	        -27.34470672	         10.60672176	          2.43985974	         -7.13630415	          0.09830782	          0.08831899	          0.05000299	          0.23731971	          0.05000086	          0.05000014	          0.05000097	          0.07399242	          0.21078687	          0.07736562	          0.05001865	          0.11207851	          0.05000068	          0.05000120	          0.25790295	          0.05000145	          0.05000169	          0.28149941	
          1.61937736	          2.67180634	          2.02548214	          0.89646871	         20.14526602	        -15.06172468	        -19.01100874	        -30.14725075	         10.52253479	          2.79895279	         -6.91189458	          0.11129785	          0.11390118	          0.05000039	          0.20884223	          0.05000114	          0.05000015	          0.05000433	          0.06307919	          0.20375974	          0.06659818	          0.05001211	          0.09554817	          0.05000181	          0.05000365	          0.27643441	          0.05000185	          0.05000169	          0.28593287	
          1.62975799	          2.62232435	          2.03942110	          0.89809133	         19.30863839	        -13.68713379	        -19.06844180	        -32.58733358	         10.52013950	          3.32778548	         -6.75052548	          0.13194643	          0.14563300	          0.05000043	          0.17969993	          0.05001768	          0.05000015	          0.05490552	          0.05377582	          0.19637957	          0.06182797	          0.05022556	          0.08145602	          0.05000237	          0.05000347	          0.27315129	          0.05000237	          0.05000174	          0.28486418	
          1.64013861	          2.57316619	          2.05288630	          0.90022326	         18.35073491	        -12.27213983	        -18.86086650	        -34.69159796	         10.59722195	          3.92185057	         -6.64292754	          0.14523008	          0.17550683	          0.05000049	          0.15319961	          0.08197947	          0.05000017	          0.05381609	          0.05000061	          0.19089296	          0.06192264	          0.05002758	          0.06944499	          0.05000087	          0.05000174	          0.25447409	          0.05000347	          0.05000249	          0.27840842	
          1.65051924	          2.52529410	          2.06594832	          0.90275192	         17.30224802	        -10.83409920	        -18.45044619	        -36.46381246	         10.72860869	          4.45669861	         -6.58149489	          0.12381630	          0.21062580	          0.05000052	          0.13121853	          0.10494595	          0.05000020	          0.05180211	          0.05000049	          0.18816823	          0.06121900	          0.05001174	          0.06385877	          0.05000075	          0.05000185	          0.22812892	          0.05000261	          0.05000303	          0.26978543	
          1.66089986	          2.48023017	          2.07867521	          0.90553671	         16.19560753	         -9.39148641	        -17.90229940	        -37.90979784	         10.88321603	          4.93670373	         -6.55987743	          0.10555637	          0.24988908	          0.05000051	          0.11482606	          0.12376501	          0.05000023	          0.05108463	          0.05000061	          0.18708443	          0.06053353	          0.05000677	          0.06213110	          0.05000069	          0.05000216	          0.20126663	          0.05000181	          0.05000340	          0.26066999	
